<?xml version="1.0" encoding="UTF-8" standalone="no"?>
<!DOCTYPE svg PUBLIC "-//W3C//DTD SVG 1.1//EN"
 "http://www.w3.org/Graphics/SVG/1.1/DTD/svg11.dtd">
<!-- Generated by graphviz version 11.0.0 (20240428.1522)
 -->
<!-- Pages: 1 -->
<svg width="1575pt" height="210pt"
 viewBox="0.00 0.00 1574.75 210.00" xmlns="http://www.w3.org/2000/svg" xmlns:xlink="http://www.w3.org/1999/xlink">
<g id="graph0" class="graph" transform="scale(1 1) rotate(0) translate(4 206)">
<polygon fill="white" stroke="none" points="-4,4 -4,-206 1570.75,-206 1570.75,4 -4,4"/>
<!-- 3119096280592 -->
<g id="node1" class="node">
<title>3119096280592</title>
<polygon fill="none" stroke="black" points="0,-165.5 0,-201.5 199.5,-201.5 199.5,-165.5 0,-165.5"/>
<text text-anchor="middle" x="16.25" y="-178.2" font-family="Times New Roman,serif" font-size="14.00">w1</text>
<polyline fill="none" stroke="black" points="32.5,-165.75 32.5,-201.5"/>
<text text-anchor="middle" x="75" y="-178.2" font-family="Times New Roman,serif" font-size="14.00">data &#45;3.0000</text>
<polyline fill="none" stroke="black" points="117.5,-165.75 117.5,-201.5"/>
<text text-anchor="middle" x="158.5" y="-178.2" font-family="Times New Roman,serif" font-size="14.00">grad 0.0000</text>
</g>
<!-- 3119096482896* -->
<g id="node4" class="node">
<title>3119096482896*</title>
<ellipse fill="none" stroke="black" cx="262.5" cy="-128.5" rx="27" ry="18"/>
<text text-anchor="middle" x="262.5" y="-123.08" font-family="Times New Roman,serif" font-size="14.00">*</text>
</g>
<!-- 3119096280592&#45;&gt;3119096482896* -->
<g id="edge9" class="edge">
<title>3119096280592&#45;&gt;3119096482896*</title>
<path fill="none" stroke="black" d="M173.43,-165.03C182.28,-162.37 191.14,-159.51 199.5,-156.5 209.59,-152.87 220.33,-148.29 229.98,-143.89"/>
<polygon fill="black" stroke="black" points="231.37,-147.1 238.95,-139.7 228.41,-140.76 231.37,-147.1"/>
</g>
<!-- 3119096486416 -->
<g id="node2" class="node">
<title>3119096486416</title>
<polygon fill="none" stroke="black" points="714.38,-27.5 714.38,-63.5 900.38,-63.5 900.38,-27.5 714.38,-27.5"/>
<text text-anchor="middle" x="726.12" y="-40.2" font-family="Times New Roman,serif" font-size="14.00">b</text>
<polyline fill="none" stroke="black" points="737.88,-27.75 737.88,-63.5"/>
<text text-anchor="middle" x="778.12" y="-40.2" font-family="Times New Roman,serif" font-size="14.00">data 6.8814</text>
<polyline fill="none" stroke="black" points="818.38,-27.75 818.38,-63.5"/>
<text text-anchor="middle" x="859.38" y="-40.2" font-family="Times New Roman,serif" font-size="14.00">grad 0.0000</text>
</g>
<!-- 3119096490704+ -->
<g id="node11" class="node">
<title>3119096490704+</title>
<ellipse fill="none" stroke="black" cx="1006.5" cy="-72.5" rx="27" ry="18"/>
<text text-anchor="middle" x="1006.5" y="-67.08" font-family="Times New Roman,serif" font-size="14.00">+</text>
</g>
<!-- 3119096486416&#45;&gt;3119096490704+ -->
<g id="edge7" class="edge">
<title>3119096486416&#45;&gt;3119096490704+</title>
<path fill="none" stroke="black" d="M900.59,-58.13C924.65,-61.43 949.22,-64.79 968.53,-67.44"/>
<polygon fill="black" stroke="black" points="967.94,-70.89 978.32,-68.78 968.89,-63.95 967.94,-70.89"/>
</g>
<!-- 3119096482896 -->
<g id="node3" class="node">
<title>3119096482896</title>
<polygon fill="none" stroke="black" points="325.5,-110.5 325.5,-146.5 545.25,-146.5 545.25,-110.5 325.5,-110.5"/>
<text text-anchor="middle" x="351.88" y="-123.2" font-family="Times New Roman,serif" font-size="14.00">x1*w1</text>
<polyline fill="none" stroke="black" points="378.25,-110.75 378.25,-146.5"/>
<text text-anchor="middle" x="420.75" y="-123.2" font-family="Times New Roman,serif" font-size="14.00">data &#45;6.0000</text>
<polyline fill="none" stroke="black" points="463.25,-110.75 463.25,-146.5"/>
<text text-anchor="middle" x="504.25" y="-123.2" font-family="Times New Roman,serif" font-size="14.00">grad 0.0000</text>
</g>
<!-- 3119096485008+ -->
<g id="node6" class="node">
<title>3119096485008+</title>
<ellipse fill="none" stroke="black" cx="608.25" cy="-100.5" rx="27" ry="18"/>
<text text-anchor="middle" x="608.25" y="-95.08" font-family="Times New Roman,serif" font-size="14.00">+</text>
</g>
<!-- 3119096482896&#45;&gt;3119096485008+ -->
<g id="edge6" class="edge">
<title>3119096482896&#45;&gt;3119096485008+</title>
<path fill="none" stroke="black" d="M545.56,-110.61C554.32,-109.17 562.71,-107.8 570.34,-106.55"/>
<polygon fill="black" stroke="black" points="570.83,-110.02 580.13,-104.94 569.69,-103.11 570.83,-110.02"/>
</g>
<!-- 3119096482896*&#45;&gt;3119096482896 -->
<g id="edge1" class="edge">
<title>3119096482896*&#45;&gt;3119096482896</title>
<path fill="none" stroke="black" d="M289.82,-128.5C296.93,-128.5 305.11,-128.5 313.89,-128.5"/>
<polygon fill="black" stroke="black" points="313.78,-132 323.78,-128.5 313.78,-125 313.78,-132"/>
</g>
<!-- 3119096485008 -->
<g id="node5" class="node">
<title>3119096485008</title>
<polygon fill="none" stroke="black" points="671.25,-82.5 671.25,-118.5 943.5,-118.5 943.5,-82.5 671.25,-82.5"/>
<text text-anchor="middle" x="723.88" y="-95.2" font-family="Times New Roman,serif" font-size="14.00">x1*w1 + x2*w2</text>
<polyline fill="none" stroke="black" points="776.5,-82.75 776.5,-118.5"/>
<text text-anchor="middle" x="819" y="-95.2" font-family="Times New Roman,serif" font-size="14.00">data &#45;6.0000</text>
<polyline fill="none" stroke="black" points="861.5,-82.75 861.5,-118.5"/>
<text text-anchor="middle" x="902.5" y="-95.2" font-family="Times New Roman,serif" font-size="14.00">grad 0.0000</text>
</g>
<!-- 3119096485008&#45;&gt;3119096490704+ -->
<g id="edge14" class="edge">
<title>3119096485008&#45;&gt;3119096490704+</title>
<path fill="none" stroke="black" d="M938.49,-82.02C949.28,-80.49 959.5,-79.03 968.57,-77.75"/>
<polygon fill="black" stroke="black" points="968.86,-81.24 978.27,-76.37 967.87,-74.31 968.86,-81.24"/>
</g>
<!-- 3119096485008+&#45;&gt;3119096485008 -->
<g id="edge2" class="edge">
<title>3119096485008+&#45;&gt;3119096485008</title>
<path fill="none" stroke="black" d="M635.43,-100.5C642.57,-100.5 650.85,-100.5 659.84,-100.5"/>
<polygon fill="black" stroke="black" points="659.6,-104 669.6,-100.5 659.6,-97 659.6,-104"/>
</g>
<!-- 3119091898512 -->
<g id="node7" class="node">
<title>3119091898512</title>
<polygon fill="none" stroke="black" points="1380.75,-54.5 1380.75,-90.5 1566.75,-90.5 1566.75,-54.5 1380.75,-54.5"/>
<text text-anchor="middle" x="1392.5" y="-67.2" font-family="Times New Roman,serif" font-size="14.00">o</text>
<polyline fill="none" stroke="black" points="1404.25,-54.75 1404.25,-90.5"/>
<text text-anchor="middle" x="1444.5" y="-67.2" font-family="Times New Roman,serif" font-size="14.00">data 0.7071</text>
<polyline fill="none" stroke="black" points="1484.75,-54.75 1484.75,-90.5"/>
<text text-anchor="middle" x="1525.75" y="-67.2" font-family="Times New Roman,serif" font-size="14.00">grad 0.0000</text>
</g>
<!-- 3119091898512tanh -->
<g id="node8" class="node">
<title>3119091898512tanh</title>
<ellipse fill="none" stroke="black" cx="1317.75" cy="-72.5" rx="27" ry="18"/>
<text text-anchor="middle" x="1317.75" y="-67.08" font-family="Times New Roman,serif" font-size="14.00">tanh</text>
</g>
<!-- 3119091898512tanh&#45;&gt;3119091898512 -->
<g id="edge3" class="edge">
<title>3119091898512tanh&#45;&gt;3119091898512</title>
<path fill="none" stroke="black" d="M1345.22,-72.5C1352.36,-72.5 1360.53,-72.5 1369.21,-72.5"/>
<polygon fill="black" stroke="black" points="1368.94,-76 1378.94,-72.5 1368.94,-69 1368.94,-76"/>
</g>
<!-- 3119095638672 -->
<g id="node9" class="node">
<title>3119095638672</title>
<polygon fill="none" stroke="black" points="3.75,-110.5 3.75,-146.5 195.75,-146.5 195.75,-110.5 3.75,-110.5"/>
<text text-anchor="middle" x="18.5" y="-123.2" font-family="Times New Roman,serif" font-size="14.00">x1</text>
<polyline fill="none" stroke="black" points="33.25,-110.75 33.25,-146.5"/>
<text text-anchor="middle" x="73.5" y="-123.2" font-family="Times New Roman,serif" font-size="14.00">data 2.0000</text>
<polyline fill="none" stroke="black" points="113.75,-110.75 113.75,-146.5"/>
<text text-anchor="middle" x="154.75" y="-123.2" font-family="Times New Roman,serif" font-size="14.00">grad 0.0000</text>
</g>
<!-- 3119095638672&#45;&gt;3119096482896* -->
<g id="edge11" class="edge">
<title>3119095638672&#45;&gt;3119096482896*</title>
<path fill="none" stroke="black" d="M196.12,-128.5C205.86,-128.5 215.3,-128.5 223.83,-128.5"/>
<polygon fill="black" stroke="black" points="223.71,-132 233.71,-128.5 223.71,-125 223.71,-132"/>
</g>
<!-- 3119096490704 -->
<g id="node10" class="node">
<title>3119096490704</title>
<polygon fill="none" stroke="black" points="1069.5,-54.5 1069.5,-90.5 1254.75,-90.5 1254.75,-54.5 1069.5,-54.5"/>
<text text-anchor="middle" x="1080.88" y="-67.2" font-family="Times New Roman,serif" font-size="14.00">n</text>
<polyline fill="none" stroke="black" points="1092.25,-54.75 1092.25,-90.5"/>
<text text-anchor="middle" x="1132.5" y="-67.2" font-family="Times New Roman,serif" font-size="14.00">data 0.8814</text>
<polyline fill="none" stroke="black" points="1172.75,-54.75 1172.75,-90.5"/>
<text text-anchor="middle" x="1213.75" y="-67.2" font-family="Times New Roman,serif" font-size="14.00">grad 0.0000</text>
</g>
<!-- 3119096490704&#45;&gt;3119091898512tanh -->
<g id="edge13" class="edge">
<title>3119096490704&#45;&gt;3119091898512tanh</title>
<path fill="none" stroke="black" d="M1255.15,-72.5C1263.52,-72.5 1271.64,-72.5 1279.09,-72.5"/>
<polygon fill="black" stroke="black" points="1279.03,-76 1289.03,-72.5 1279.03,-69 1279.03,-76"/>
</g>
<!-- 3119096490704+&#45;&gt;3119096490704 -->
<g id="edge4" class="edge">
<title>3119096490704+&#45;&gt;3119096490704</title>
<path fill="none" stroke="black" d="M1033.91,-72.5C1040.95,-72.5 1049,-72.5 1057.55,-72.5"/>
<polygon fill="black" stroke="black" points="1057.54,-76 1067.54,-72.5 1057.54,-69 1057.54,-76"/>
</g>
<!-- 3119096118480 -->
<g id="node12" class="node">
<title>3119096118480</title>
<polygon fill="none" stroke="black" points="3.75,-55.5 3.75,-91.5 195.75,-91.5 195.75,-55.5 3.75,-55.5"/>
<text text-anchor="middle" x="18.5" y="-68.2" font-family="Times New Roman,serif" font-size="14.00">x2</text>
<polyline fill="none" stroke="black" points="33.25,-55.75 33.25,-91.5"/>
<text text-anchor="middle" x="73.5" y="-68.2" font-family="Times New Roman,serif" font-size="14.00">data 0.0000</text>
<polyline fill="none" stroke="black" points="113.75,-55.75 113.75,-91.5"/>
<text text-anchor="middle" x="154.75" y="-68.2" font-family="Times New Roman,serif" font-size="14.00">grad 0.0000</text>
</g>
<!-- 3119096249680* -->
<g id="node14" class="node">
<title>3119096249680*</title>
<ellipse fill="none" stroke="black" cx="262.5" cy="-73.5" rx="27" ry="18"/>
<text text-anchor="middle" x="262.5" y="-68.08" font-family="Times New Roman,serif" font-size="14.00">*</text>
</g>
<!-- 3119096118480&#45;&gt;3119096249680* -->
<g id="edge10" class="edge">
<title>3119096118480&#45;&gt;3119096249680*</title>
<path fill="none" stroke="black" d="M196.12,-73.5C205.86,-73.5 215.3,-73.5 223.83,-73.5"/>
<polygon fill="black" stroke="black" points="223.71,-77 233.71,-73.5 223.71,-70 223.71,-77"/>
</g>
<!-- 3119096249680 -->
<g id="node13" class="node">
<title>3119096249680</title>
<polygon fill="none" stroke="black" points="327.75,-55.5 327.75,-91.5 543,-91.5 543,-55.5 327.75,-55.5"/>
<text text-anchor="middle" x="354.12" y="-68.2" font-family="Times New Roman,serif" font-size="14.00">x2*w2</text>
<polyline fill="none" stroke="black" points="380.5,-55.75 380.5,-91.5"/>
<text text-anchor="middle" x="420.75" y="-68.2" font-family="Times New Roman,serif" font-size="14.00">data 0.0000</text>
<polyline fill="none" stroke="black" points="461,-55.75 461,-91.5"/>
<text text-anchor="middle" x="502" y="-68.2" font-family="Times New Roman,serif" font-size="14.00">grad 0.0000</text>
</g>
<!-- 3119096249680&#45;&gt;3119096485008+ -->
<g id="edge8" class="edge">
<title>3119096249680&#45;&gt;3119096485008+</title>
<path fill="none" stroke="black" d="M543.14,-90.37C552.77,-91.89 562.01,-93.35 570.33,-94.67"/>
<polygon fill="black" stroke="black" points="569.51,-98.08 579.94,-96.18 570.61,-91.17 569.51,-98.08"/>
</g>
<!-- 3119096249680*&#45;&gt;3119096249680 -->
<g id="edge5" class="edge">
<title>3119096249680*&#45;&gt;3119096249680</title>
<path fill="none" stroke="black" d="M289.82,-73.5C297.5,-73.5 306.41,-73.5 315.98,-73.5"/>
<polygon fill="black" stroke="black" points="315.97,-77 325.97,-73.5 315.97,-70 315.97,-77"/>
</g>
<!-- 3119096276880 -->
<g id="node15" class="node">
<title>3119096276880</title>
<polygon fill="none" stroke="black" points="2.25,-0.5 2.25,-36.5 197.25,-36.5 197.25,-0.5 2.25,-0.5"/>
<text text-anchor="middle" x="18.5" y="-13.2" font-family="Times New Roman,serif" font-size="14.00">w2</text>
<polyline fill="none" stroke="black" points="34.75,-0.75 34.75,-36.5"/>
<text text-anchor="middle" x="75" y="-13.2" font-family="Times New Roman,serif" font-size="14.00">data 1.0000</text>
<polyline fill="none" stroke="black" points="115.25,-0.75 115.25,-36.5"/>
<text text-anchor="middle" x="156.25" y="-13.2" font-family="Times New Roman,serif" font-size="14.00">grad 0.0000</text>
</g>
<!-- 3119096276880&#45;&gt;3119096249680* -->
<g id="edge12" class="edge">
<title>3119096276880&#45;&gt;3119096249680*</title>
<path fill="none" stroke="black" d="M173.43,-36.97C182.28,-39.63 191.14,-42.49 199.5,-45.5 209.59,-49.13 220.33,-53.71 229.98,-58.11"/>
<polygon fill="black" stroke="black" points="228.41,-61.24 238.95,-62.3 231.37,-54.9 228.41,-61.24"/>
</g>
</g>
</svg>
